# Blender 3.6.5
# www.blender.org
o 花1
v 0.009394 0.559415 0.008305
v 0.012318 0.559055 0.002355
v -0.047591 0.608121 -0.018835
v -0.058708 0.609900 -0.031750
v -0.016182 0.587987 0.020763
v 0.013225 0.587176 -0.057242
v -0.006591 0.597888 -0.051295
v -0.033297 0.601176 0.003052
v -0.006257 0.575250 0.021278
v 0.020960 0.571899 -0.034111
v 0.002493 0.531476 -0.000898
v 0.005204 0.532595 0.002662
v -0.043980 0.554591 0.026682
v -0.046281 0.560866 0.031555
v -0.030914 0.536971 0.001595
v -0.002143 0.542014 0.048501
v -0.017757 0.546985 0.046809
v -0.041020 0.545715 0.014299
v -0.017961 0.534025 -0.003077
v 0.006419 0.535816 0.030173
v 0.010369 0.559295 0.006322
v 0.011344 0.559175 0.004338
v -0.055002 0.609307 -0.027445
v -0.051297 0.608714 -0.023140
v 0.010947 0.588501 -0.030854
v 0.001145 0.588772 -0.004852
v -0.007969 0.600039 -0.032793
v -0.016871 0.601135 -0.014678
v 0.019412 0.574071 -0.015262
v 0.010340 0.575188 0.003201
v 0.003503 0.531424 0.001945
v -0.044225 0.557774 0.030792
v -0.019020 0.537232 0.025376
v -0.031235 0.544660 0.030998
v -0.007563 0.533216 0.014076
v 0.002944 0.531466 -0.000250
v -0.025937 0.537401 0.010119
v -0.036904 0.545619 0.020216
v -0.013766 0.533927 0.002954
v -0.044026 0.555752 0.027689
v 0.013737 0.558795 -0.006127
v 0.016110 0.558795 0.006148
v -0.003996 0.402097 -0.007445
v 0.004252 0.523815 -0.001869
v 0.003835 0.558795 0.008520
v 0.001462 0.558795 -0.003754
v 0.017427 0.402097 -0.011586
v 0.011851 0.523815 -0.003338
v 0.004146 0.478875 0.008061
v 0.015651 0.478875 0.005837
v 0.021568 0.402097 0.009838
v 0.013320 0.523815 0.004262
v 0.013427 0.478875 -0.005668
v 0.001922 0.478875 -0.003444
v 0.000145 0.402097 0.013979
v 0.005721 0.523815 0.005731
v 0.007469 0.558986 0.006623
v 0.009856 0.559775 0.001978
v -0.048113 0.605607 -0.019200
v -0.059196 0.607364 -0.031527
v -0.017498 0.586019 0.019707
v 0.011535 0.585209 -0.057230
v -0.007598 0.595502 -0.051168
v -0.034086 0.598785 0.002434
v -0.007985 0.573929 0.019867
v 0.018587 0.570864 -0.034252
v 0.002833 0.534039 -0.001093
v 0.004992 0.535152 0.002286
v -0.042593 0.556482 0.025576
v -0.044768 0.562324 0.030036
v -0.030163 0.539396 0.001066
v -0.001599 0.544396 0.047634
v -0.016757 0.549068 0.045633
v -0.039843 0.547859 0.013440
v -0.017528 0.536562 -0.003383
v 0.006566 0.538332 0.029567
v 0.008240 0.558957 0.004882
v 0.008946 0.559150 0.003352
v -0.055502 0.606766 -0.027310
v -0.051820 0.606177 -0.023264
v 0.009181 0.586619 -0.031097
v -0.000322 0.586801 -0.005681
v -0.008919 0.597628 -0.032869
v -0.017734 0.598731 -0.015119
v 0.016959 0.573474 -0.015851
v 0.008316 0.574166 0.001943
v 0.003608 0.534007 0.001749
v -0.042634 0.559330 0.029461
v -0.018284 0.539631 0.024726
v -0.029878 0.546613 0.029965
v -0.007301 0.535773 0.013736
v 0.003301 0.534031 -0.000356
v -0.025106 0.539815 0.009667
v -0.035557 0.547689 0.019430
v -0.013318 0.536472 0.002743
v -0.042348 0.557529 0.026825
vn 0.1884 0.9783 -0.0861
vn 0.8587 0.5114 0.0331
vn 0.4958 0.8680 -0.0269
vn 0.9495 -0.2778 0.1456
vn -0.5837 -0.5621 0.5860
vn -0.1027 -0.9597 0.2614
vn -0.3230 -0.8541 0.4077
vn 0.0817 -0.9861 0.1450
vn 0.7426 0.1655 0.6490
vn 0.8962 0.0871 0.4351
vn 0.3847 0.8678 0.3145
vn 0.4926 0.8509 0.1825
vn 0.6205 0.6108 0.4918
vn 0.6928 0.6674 0.2733
vn 0.2014 0.9694 0.1406
vn 0.2016 0.9792 0.0247
vn -0.1425 -0.9897 0.0165
vn -0.4605 -0.8682 0.1850
vn -0.2389 -0.9672 0.0866
vn -0.6670 -0.6754 0.3146
vn -0.5349 -0.7293 0.4266
vn -0.1837 -0.9732 0.1380
vn -0.4046 -0.8722 0.2749
vn -0.1312 -0.9885 0.0752
vn -0.1894 0.0656 -0.9797
vn 0.9809 0.0442 -0.1896
vn -0.1896 0.0442 -0.9809
vn -0.9809 0.0442 0.1896
vn 0.1896 0.0442 0.9809
vn -0.0000 -1.0000 -0.0000
vn 0.1894 0.0656 0.9797
vn 0.1893 -0.0679 0.9796
vn -0.9797 0.0656 0.1894
vn 0.9797 0.0656 -0.1894
vn -0.0000 1.0000 -0.0000
vn -0.9796 -0.0679 0.1893
vn -0.1893 -0.0679 -0.9796
vn 0.9796 -0.0679 -0.1893
vn -0.1872 -0.9785 0.0862
vn -0.8609 -0.5078 -0.0312
vn -0.4939 -0.8690 0.0283
vn -0.9441 0.2934 -0.1507
vn 0.5874 0.5593 -0.5850
vn 0.1011 0.9600 -0.2612
vn 0.3224 0.8537 -0.4089
vn -0.0846 0.9859 -0.1443
vn -0.7448 -0.1583 -0.6483
vn -0.8982 -0.0783 -0.4325
vn -0.3837 -0.8683 -0.3143
vn -0.4919 -0.8511 -0.1834
vn -0.6198 -0.6103 -0.4934
vn -0.6831 -0.6773 -0.2732
vn -0.2006 -0.9695 -0.1405
vn -0.2006 -0.9794 -0.0242
vn 0.1432 0.9896 -0.0146
vn 0.4611 0.8684 -0.1824
vn 0.2390 0.9673 -0.0850
vn 0.6692 0.6749 -0.3111
vn 0.5381 0.7278 -0.4251
vn 0.1826 0.9736 -0.1366
vn 0.4056 0.8718 -0.2746
vn 0.1311 0.9885 -0.0751
vn -0.1903 -0.7409 0.6440
vn -0.0853 -0.9771 -0.1947
vn -0.3455 0.0382 -0.9376
vn -0.7395 0.0886 0.6673
vn -0.6957 0.0613 0.7157
vn 0.4973 -0.6486 -0.5762
vn -0.2355 0.1150 -0.9650
vn -0.8179 0.1056 0.5656
vn -0.3967 -0.2869 0.8720
vn 0.0931 -0.9521 -0.2912
vn 0.0945 -0.1115 -0.9893
vn 0.8238 -0.1442 -0.5482
vn -0.1016 0.6472 0.7555
vn -0.5499 -0.2005 -0.8108
vn -0.7414 0.1119 -0.6617
vn 0.9083 -0.0025 0.4183
vn 0.0192 0.4105 0.9117
vn -0.8423 0.3263 -0.4290
vn -0.3496 -0.0736 -0.9340
vn 0.9987 0.0027 -0.0512
vn 0.1151 -0.9889 0.0936
vn 0.0726 -0.9973 0.0138
vn -0.7284 0.1882 0.6588
vn -0.7302 0.1486 0.6669
vn 0.4327 -0.0909 -0.8969
vn -0.7724 0.4965 -0.3961
vn 0.9752 -0.0993 -0.1980
vn -0.7997 0.4629 -0.3823
vt 0.139833 0.211386
vt 0.057961 0.191573
vt 0.228762 0.000152
vt 0.240580 0.023008
vt 0.164073 0.383252
vt 0.084131 0.385855
vt 0.000152 0.283136
vt 0.116094 0.304203
vt 0.245448 0.450751
vt 0.236478 0.450904
vt 0.889509 0.511279
vt 0.960304 0.506242
vt 0.873008 0.589589
vt 0.867095 0.580149
vt 0.881211 0.395187
vt 0.957499 0.387076
vt 0.987539 0.452745
vt 0.893750 0.455344
vt 0.864192 0.334788
vt 0.871690 0.330943
vt 0.265504 0.451428
vt 0.255113 0.450509
vt 0.245399 0.381746
vt 0.351629 0.368192
vt 0.368835 0.295788
vt 0.233239 0.306916
vt 0.227165 0.205269
vt 0.329453 0.174257
vt 0.252301 0.045872
vt 0.263796 0.068880
vt 0.855873 0.334246
vt 0.836121 0.392812
vt 0.834295 0.447933
vt 0.844835 0.512299
vt 0.855099 0.569557
vt 0.816419 0.513899
vt 0.851234 0.564343
vt 0.806662 0.393226
vt 0.796486 0.446479
vt 0.852962 0.334876
vt 0.560562 0.095807
vt 0.524781 0.425762
vt 0.474341 0.422618
vt 0.468544 0.091921
vt 0.467106 0.625785
vt 0.432218 0.620961
vt 0.424264 0.424588
vt 0.502465 0.630053
vt 0.574694 0.433720
vt 0.537755 0.633360
vt 0.623971 0.446945
vt 0.572262 0.636730
vt 0.376776 0.099558
vt 0.369139 0.007789
vt 0.460908 0.000152
vt 0.740796 0.138467
vt 0.651527 0.111197
vt 0.586798 0.786983
vt 0.535163 0.789176
vt 0.432722 0.776965
vt 0.418687 0.826513
vt 0.369139 0.812478
vt 0.383174 0.762930
vt 0.483419 0.785725
vt 0.120810 0.662286
vt 0.193802 0.865377
vt 0.175897 0.876011
vt 0.035428 0.670677
vt 0.160318 0.509604
vt 0.109476 0.575026
vt 0.011371 0.579843
vt 0.085162 0.497893
vt 0.246581 0.460480
vt 0.239880 0.461780
vt 0.839282 0.087488
vt 0.788411 0.017038
vt 0.781908 0.000152
vt 0.936698 0.067276
vt 0.863893 0.231030
vt 0.862977 0.152474
vt 0.999848 0.115961
vt 0.971671 0.215454
vt 0.865079 0.320888
vt 0.875482 0.320834
vt 0.259989 0.461274
vt 0.331270 0.534259
vt 0.236785 0.517175
vt 0.252876 0.460509
vt 0.349086 0.599510
vt 0.303631 0.717117
vt 0.205996 0.678204
vt 0.219798 0.583254
vt 0.225464 0.824692
vt 0.210379 0.846973
vt 0.853291 0.324098
vt 0.806894 0.247533
vt 0.788369 0.180160
vt 0.782989 0.100226
vt 0.780953 0.030962
vt 0.747369 0.106217
vt 0.775995 0.037347
vt 0.769901 0.253673
vt 0.741100 0.193303
vt 0.849176 0.325105
vt 0.341734 0.529501
vt 0.171760 0.888673
vt 0.023925 0.675074
vt 0.236514 0.831505
vt 0.220897 0.854071
vt 0.361091 0.600525
vt 0.314657 0.722993
vt 0.000152 0.577326
vt 0.078016 0.488738
vt 0.796485 0.388140
vt 0.969538 0.515060
vt 0.873261 0.599963
vt 0.858206 0.589113
vt 0.806728 0.518956
vt 0.784645 0.446987
vt 0.965134 0.379801
vt 0.999848 0.453143
vt 0.843286 0.571968
vt 0.201842 0.877787
vt 0.847233 0.578464
s 0
f 27/1/1 7/2/1 4/3/1 23/4/1
f 29/5/2 10/6/2 6/7/2 25/8/2
f 25/8/3 6/7/3 7/2/3 27/1/3
f 22/9/4 2/10/4 10/6/4 29/5/4
f 34/11/5 17/12/5 14/13/5 32/14/5
f 35/15/6 20/16/6 16/17/6 33/18/6
f 33/18/7 16/17/7 17/12/7 34/11/7
f 31/19/8 12/20/8 20/16/8 35/15/8
f 1/21/9 21/22/9 30/23/9 9/24/9
f 21/22/10 22/9/10 29/5/10 30/23/10
f 5/25/11 26/26/11 28/27/11 8/28/11
f 26/26/12 25/8/12 27/1/12 28/27/12
f 9/24/13 30/23/13 26/26/13 5/25/13
f 30/23/14 29/5/14 25/8/14 26/26/14
f 8/28/15 28/27/15 24/29/15 3/30/15
f 28/27/16 27/1/16 23/4/16 24/29/16
f 36/31/17 31/19/17 35/15/17 39/32/17
f 37/33/18 33/18/18 34/11/18 38/34/18
f 39/32/19 35/15/19 33/18/19 37/33/19
f 38/34/20 34/11/20 32/14/20 40/35/20
f 18/36/21 38/34/21 40/35/21 13/37/21
f 19/38/22 39/32/22 37/33/22 15/39/22
f 15/39/23 37/33/23 38/34/23 18/36/23
f 11/40/24 36/31/24 39/32/24 19/38/24
f 43/41/25 54/42/25 53/43/25 47/44/25
f 53/43/26 48/45/26 52/46/26 50/47/26
f 54/42/27 44/48/27 48/45/27 53/43/27
f 54/42/28 49/49/28 56/50/28 44/48/28
f 50/51/29 52/52/29 56/50/29 49/49/29
f 47/44/30 51/53/30 55/54/30 43/55/30
f 51/56/31 50/51/31 49/49/31 55/57/31
f 56/50/32 52/52/32 42/58/32 45/59/32
f 43/41/33 55/57/33 49/49/33 54/42/33
f 47/44/34 53/43/34 50/47/34 51/53/34
f 41/60/35 46/61/35 45/62/35 42/63/35
f 44/48/36 56/50/36 45/59/36 46/64/36
f 48/45/37 44/48/37 46/64/37 41/60/37
f 52/46/38 48/45/38 41/60/38 42/63/38
f 83/65/39 79/66/39 60/67/39 63/68/39
f 85/69/40 81/70/40 62/71/40 66/72/40
f 81/70/41 83/65/41 63/68/41 62/71/41
f 78/73/42 85/69/42 66/72/42 58/74/42
f 90/75/43 88/76/43 70/77/43 73/78/43
f 91/79/44 89/80/44 72/81/44 76/82/44
f 89/80/45 90/75/45 73/78/45 72/81/45
f 87/83/46 91/79/46 76/82/46 68/84/46
f 57/85/47 65/86/47 86/87/47 77/88/47
f 77/88/48 86/87/48 85/69/48 78/73/48
f 61/89/49 64/90/49 84/91/49 82/92/49
f 82/92/50 84/91/50 83/65/50 81/70/50
f 65/86/51 61/89/51 82/92/51 86/87/51
f 86/87/52 82/92/52 81/70/52 85/69/52
f 64/90/53 59/93/53 80/94/53 84/91/53
f 84/91/54 80/94/54 79/66/54 83/65/54
f 92/95/55 95/96/55 91/79/55 87/83/55
f 93/97/56 94/98/56 90/75/56 89/80/56
f 95/96/57 93/97/57 89/80/57 91/79/57
f 94/98/58 96/99/58 88/76/58 90/75/58
f 74/100/59 69/101/59 96/99/59 94/98/59
f 75/102/60 71/103/60 93/97/60 95/96/60
f 71/103/61 74/100/61 94/98/61 93/97/61
f 67/104/62 75/102/62 95/96/62 92/95/62
f 1/21/63 9/105/63 65/86/63 57/85/63
f 2/10/64 22/9/64 78/73/64 58/74/64
f 4/106/65 7/107/65 63/68/65 60/67/65
f 3/108/66 24/109/66 80/94/66 59/93/66
f 5/110/67 8/111/67 64/90/67 61/89/67
f 6/112/68 10/113/68 66/72/68 62/71/68
f 7/107/69 6/112/69 62/71/69 63/68/69
f 8/111/70 3/108/70 59/93/70 64/90/70
f 9/105/71 5/110/71 61/89/71 65/86/71
f 10/113/72 2/10/72 58/74/72 66/72/72
f 11/40/73 19/38/73 75/114/73 67/104/73
f 36/31/74 11/40/74 67/104/74 92/95/74
f 14/13/75 17/12/75 73/115/75 70/116/75
f 32/14/76 14/13/76 70/116/76 88/117/76
f 15/39/77 18/36/77 74/118/77 71/119/77
f 16/17/78 20/16/78 76/120/78 72/121/78
f 17/12/79 16/17/79 72/121/79 73/115/79
f 18/36/80 13/37/80 69/122/80 74/118/80
f 19/38/81 15/39/81 71/119/81 75/114/81
f 20/16/82 12/20/82 68/84/82 76/120/82
f 21/22/83 1/21/83 57/85/83 77/88/83
f 22/9/84 21/22/84 77/88/84 78/73/84
f 23/123/85 4/106/85 60/67/85 79/66/85
f 24/109/86 23/123/86 79/66/86 80/94/86
f 12/20/87 31/19/87 87/83/87 68/84/87
f 40/35/88 32/14/88 88/117/88 96/124/88
f 31/19/89 36/31/89 92/95/89 87/83/89
f 13/37/90 40/35/90 96/124/90 69/122/90
