# Blender 3.6.5
# www.blender.org
o 花2
v 0.009164 0.691087 0.009164
v -0.009164 0.691087 0.009164
v 0.015994 0.393516 -0.015994
v 0.005673 0.612342 -0.005673
v -0.009164 0.691087 -0.009164
v 0.009164 0.691087 -0.009164
v 0.015994 0.393516 0.015994
v 0.005673 0.612342 0.005673
v -0.008589 0.477154 -0.008589
v -0.008589 0.477154 0.008589
v -0.015994 0.393516 0.015994
v -0.005674 0.612342 0.005673
v 0.008589 0.477154 0.008589
v 0.008589 0.477154 -0.008589
v -0.015994 0.393516 -0.015994
v -0.005674 0.612342 -0.005673
v -0.010401 0.692482 -0.001102
v -0.002650 0.691672 0.004761
v 0.044518 0.802124 -0.075573
v 0.066200 0.806130 -0.087981
v -0.021217 0.756802 -0.041381
v 0.082878 0.754975 0.022647
v 0.079832 0.779089 -0.007529
v 0.009038 0.786491 -0.061088
v -0.024718 0.728129 -0.027239
v 0.047433 0.720584 0.027346
v -0.009250 0.693096 0.002320
v -0.009754 0.693039 -0.003031
v -0.072751 0.738865 0.013481
v -0.086106 0.738250 0.009520
v -0.029230 0.722605 0.025010
v -0.042871 0.724722 -0.040920
v -0.056556 0.733747 -0.027234
v -0.051952 0.734269 0.021640
v -0.018709 0.709375 0.019675
v -0.023401 0.708843 -0.030136
v 0.004765 0.629589 -0.008475
v -0.001112 0.632108 -0.005564
v -0.022002 0.681623 -0.083040
v -0.028375 0.695750 -0.087707
v 0.010472 0.641958 -0.057253
v -0.065047 0.653311 -0.028892
v -0.058267 0.664501 -0.050894
v -0.005001 0.661641 -0.075333
v 0.013593 0.635326 -0.037309
v -0.041048 0.639358 -0.011469
v -0.004349 0.582665 0.004128
v 0.008429 0.589781 0.007952
v -0.117571 0.657592 0.180253
v -0.124566 0.693032 0.195518
v -0.089528 0.566317 0.085342
v 0.058180 0.667349 0.147521
v 0.005586 0.672098 0.176132
v -0.111120 0.607105 0.141200
v -0.061477 0.564764 0.044159
v 0.057467 0.631003 0.079760
v 0.002040 0.586223 0.006040
v -0.121068 0.675312 0.187885
v -0.015956 0.627112 0.109497
v -0.052713 0.644900 0.154382
v -0.002291 0.601768 0.059977
v -0.007817 0.692212 0.000852
v -0.005234 0.691942 0.002807
v 0.058973 0.804795 -0.083845
v 0.051745 0.803459 -0.079709
v 0.045530 0.757959 0.012027
v 0.010832 0.758568 -0.009316
v 0.053585 0.783932 -0.014660
v 0.029987 0.786399 -0.032513
v 0.020733 0.725474 0.019874
v -0.003317 0.727989 0.001679
v -0.009502 0.693068 -0.000356
v -0.079429 0.738558 0.011501
v -0.039189 0.718384 -0.006537
v -0.057101 0.728281 -0.002488
v -0.021055 0.709109 -0.005231
v 0.000392 0.629471 -0.007813
v -0.027849 0.688788 -0.084535
v -0.027067 0.642545 -0.046750
v -0.031761 0.659267 -0.065895
v -0.013990 0.633506 -0.027116
v 0.003707 0.629565 -0.008007
v -0.003181 0.642927 -0.052462
v -0.014664 0.661425 -0.071056
v 0.003745 0.635106 -0.032950
v -0.023439 0.684236 -0.083385
v -0.005657 0.691825 -0.004797
v -0.000650 0.692792 -0.000837
v 0.046092 0.796487 -0.077101
v 0.065760 0.800377 -0.089798
v -0.017568 0.753100 -0.044474
v 0.083764 0.751335 0.017897
v 0.080027 0.773996 -0.010787
v 0.011464 0.781372 -0.063209
v -0.020350 0.726042 -0.030867
v 0.048932 0.719152 0.021663
v -0.014213 0.689675 0.002824
v -0.014717 0.689618 -0.002527
v -0.074358 0.733403 0.015526
v -0.088279 0.732635 0.008935
v -0.032399 0.717649 0.026418
v -0.046242 0.719724 -0.041427
v -0.059668 0.728615 -0.027987
v -0.054252 0.728980 0.023464
v -0.022776 0.705000 0.020632
v -0.027152 0.704098 -0.030159
v 0.005213 0.635478 -0.007166
v 0.000327 0.637964 -0.006044
v -0.019698 0.685072 -0.078637
v -0.025268 0.698198 -0.083131
v 0.011701 0.647217 -0.054526
v -0.062605 0.658347 -0.026597
v -0.055411 0.668441 -0.047301
v -0.003141 0.665821 -0.071376
v 0.014350 0.641087 -0.035628
v -0.039096 0.645014 -0.010577
v -0.007079 0.587803 0.002471
v 0.006301 0.595187 0.006268
v -0.118922 0.660787 0.175297
v -0.124924 0.696637 0.190674
v -0.091968 0.570853 0.082169
v 0.056862 0.672460 0.144565
v 0.004573 0.676881 0.172570
v -0.112975 0.611002 0.136962
v -0.064189 0.569640 0.041821
v 0.055873 0.636223 0.077151
v -0.000453 0.591476 0.004370
v -0.121704 0.678815 0.182995
v -0.017763 0.631989 0.106408
v -0.053964 0.649031 0.150143
v -0.004571 0.606913 0.057758
v -0.003585 0.691704 -0.003440
v -0.002033 0.692023 -0.002326
v 0.058838 0.799021 -0.085646
v 0.052512 0.797707 -0.081416
v 0.047154 0.754394 0.007417
v 0.013922 0.754832 -0.012934
v 0.054366 0.778708 -0.017608
v 0.031888 0.781208 -0.034967
v 0.023226 0.724384 0.014471
v 0.000617 0.726251 -0.002576
v -0.014465 0.689646 0.000148
v -0.081477 0.732869 0.011696
v -0.042477 0.713323 -0.006124
v -0.059669 0.722824 -0.002022
v -0.025344 0.704877 -0.004695
v 0.000984 0.635468 -0.007284
v -0.025150 0.691417 -0.079802
v -0.025465 0.647713 -0.044044
v -0.029688 0.663011 -0.061619
v -0.013000 0.639369 -0.026001
v 0.003835 0.635469 -0.006696
v -0.002254 0.648132 -0.049521
v -0.013167 0.665406 -0.066754
v 0.004170 0.640902 -0.031272
v -0.022026 0.687385 -0.078417
vn 0.9961 0.0882 -0.0000
vn -0.0000 0.0216 0.9998
vn 0.9998 0.0216 -0.0000
vn -0.0000 0.0216 -0.9998
vn -0.9998 0.0216 -0.0000
vn -0.0000 -1.0000 -0.0000
vn -0.9961 0.0882 -0.0000
vn -0.9990 -0.0443 -0.0000
vn -0.0000 0.0882 -0.9961
vn -0.0000 0.0882 0.9961
vn -0.0000 1.0000 -0.0000
vn -0.0000 -0.0443 -0.9990
vn 0.9990 -0.0443 -0.0000
vn -0.0000 -0.0443 0.9990
vn 0.0728 0.9510 0.3004
vn -0.2121 0.3614 0.9080
vn -0.0900 0.7513 0.6538
vn -0.3306 -0.1851 0.9255
vn 0.3591 0.9283 0.0968
vn 0.5491 0.8352 0.0297
vn 0.5631 0.8156 0.1330
vn 0.8205 0.5656 -0.0833
vn -0.5136 -0.4047 -0.7566
vn -0.3462 -0.9121 -0.2196
vn -0.4452 -0.7304 -0.5180
vn -0.2379 -0.9680 0.0794
vn 0.0592 -0.5960 0.8008
vn 0.2364 -0.8489 0.4727
vn 0.2013 -0.8408 0.5025
vn 0.3518 -0.8937 0.2784
vn 0.4513 -0.8493 0.2739
vn 0.3531 -0.7054 0.6146
vn 0.4447 -0.7821 0.4365
vn 0.2234 -0.5281 0.8192
vn -0.7843 0.1086 0.6108
vn -0.5986 0.0568 0.7991
vn -0.5073 0.7510 0.4226
vn -0.3571 0.7258 0.5880
vn -0.6779 0.4489 0.5822
vn -0.4636 0.5040 0.7287
vn -0.2602 0.9320 0.2525
vn -0.0935 0.9529 0.2887
vn 0.4467 0.8506 -0.2772
vn 0.5896 0.7848 -0.1909
vn 0.2657 0.9029 -0.3380
vn 0.0165 -0.9761 -0.2166
vn -0.1252 -0.7515 -0.6477
vn -0.0584 -0.9274 -0.3696
vn -0.2123 -0.5122 -0.8322
vn -0.3810 -0.5702 -0.7278
vn -0.1493 -0.9401 -0.3064
vn -0.2576 -0.7578 -0.5995
vn -0.0740 -0.9735 -0.2164
vn -0.0737 -0.9519 -0.2974
vn 0.2105 -0.3572 -0.9100
vn 0.0874 -0.7526 -0.6526
vn 0.3287 0.1989 -0.9233
vn -0.3555 -0.9298 -0.0957
vn -0.5466 -0.8369 -0.0273
vn -0.5635 -0.8162 -0.1278
vn -0.8233 -0.5625 0.0764
vn 0.5123 0.4002 0.7599
vn 0.3467 0.9130 0.2149
vn 0.4480 0.7286 0.5181
vn 0.2378 0.9671 -0.0907
vn -0.0569 0.5966 -0.8005
vn -0.2368 0.8486 -0.4732
vn -0.2030 0.8407 -0.5019
vn -0.3513 0.8941 -0.2778
vn -0.4515 0.8494 -0.2731
vn -0.3527 0.7057 -0.6144
vn -0.4446 0.7825 -0.4358
vn -0.2219 0.5279 -0.8198
vn 0.7855 -0.1038 -0.6101
vn 0.5979 -0.0521 -0.7999
vn 0.5080 -0.7512 -0.4214
vn 0.3598 -0.7245 -0.5879
vn 0.6798 -0.4470 -0.5815
vn 0.4640 -0.5101 -0.7243
vn 0.2600 -0.9325 -0.2505
vn 0.0914 -0.9537 -0.2866
vn -0.8237 -0.5605 0.0860
vn -0.4466 -0.8520 0.2731
vn -0.5888 -0.7859 0.1891
vn -0.2689 -0.9077 0.3221
vn -0.0238 0.9757 0.2179
vn 0.1204 0.7504 0.6499
vn 0.0537 0.9275 0.3701
vn 0.2020 0.5119 0.8349
vn 0.3745 0.5675 0.7333
vn 0.1460 0.9417 0.3030
vn 0.2573 0.7562 0.6016
vn 0.0739 0.9736 0.2159
vn -0.5946 -0.6249 -0.5058
vn 0.1548 -0.9873 -0.0354
vn 0.9865 0.0505 -0.1557
vn -0.5392 0.1257 -0.8327
vn -0.5897 0.0695 -0.8046
vn 0.6425 -0.6211 0.4488
vn 0.9913 0.1315 -0.0097
vn -0.4252 0.1449 -0.8934
vn -0.7201 -0.2425 -0.6501
vn 0.4240 -0.8921 0.1562
vn 0.5275 -0.4795 0.7013
vn 0.5639 -0.8246 -0.0443
vn -0.6908 0.4135 -0.5931
vn -0.3337 0.0922 0.9382
vn 0.0156 0.2932 0.9559
vn 0.3522 -0.2077 -0.9126
vn -0.4942 0.4116 -0.7658
vn -0.2550 0.4081 0.8766
vn 0.4012 -0.0798 0.9125
vn 0.5347 -0.6053 -0.5897
vn 0.9498 -0.1662 0.2649
vn 0.3533 -0.2193 0.9094
vn -0.7214 0.6923 -0.0148
vn 0.8753 -0.1727 -0.4517
vn 0.8156 0.1319 -0.5633
vn -0.5778 -0.0058 0.8161
vn -0.8548 0.5185 -0.0213
vn 0.6830 0.3371 -0.6480
vn 0.9782 -0.1045 -0.1796
vn -0.1299 0.0027 0.9915
vn -0.3752 -0.5121 -0.7726
vn 0.3426 -0.1259 -0.9310
vn 0.2084 0.7091 0.6736
vn -0.9843 -0.1745 -0.0269
vn -0.8887 -0.4585 -0.0068
vn 0.9705 0.2070 -0.1234
vn 0.4296 0.5652 0.7043
vn -0.9597 -0.2363 0.1524
vn -0.6606 -0.6143 -0.4315
vn 0.8090 0.0466 -0.5859
vn 0.3470 -0.1413 -0.9272
vn -0.9781 -0.1986 0.0624
vn -0.1038 -0.9942 0.0284
vn -0.0138 -0.9993 0.0344
vn -0.5243 0.2788 -0.8046
vn -0.5431 0.2171 -0.8111
vn -0.3856 0.3016 0.8720
vn 0.7454 -0.1304 0.6538
vn 0.6971 0.4461 -0.5613
vn -0.0608 -0.1490 0.9870
vn 0.6466 0.4789 -0.5938
vt 0.685933 0.053804
vt 0.697071 0.203086
vt 0.666360 0.204992
vt 0.632303 0.062203
vt 0.789015 0.216453
vt 0.745997 0.455484
vt 0.725729 0.454166
vt 0.759006 0.208910
vt 0.685046 0.450417
vt 0.664607 0.447973
vt 0.728226 0.204393
vt 0.705366 0.452532
vt 0.623904 0.008573
vt 0.677534 0.000174
vt 0.794337 0.062047
vt 0.740214 0.053735
vt 0.723918 0.594538
vt 0.692485 0.592926
vt 0.847970 0.079778
vt 0.630428 0.582356
vt 0.661257 0.588880
vt 0.654732 0.619709
vt 0.623904 0.613184
vt 0.755357 0.593646
vt 0.486356 0.130133
vt 0.436147 0.118898
vt 0.543414 0.000174
vt 0.550297 0.014282
vt 0.493273 0.262874
vt 0.442313 0.265391
vt 0.397093 0.182339
vt 0.467684 0.195252
vt 0.542002 0.327706
vt 0.536338 0.327867
vt 0.705219 0.683122
vt 0.652787 0.677243
vt 0.732052 0.620057
vt 0.737008 0.633417
vt 0.695227 0.768434
vt 0.644211 0.761841
vt 0.623904 0.709869
vt 0.694820 0.725879
vt 0.701619 0.809710
vt 0.696152 0.809105
vt 0.919905 0.344024
vt 0.966554 0.348674
vt 0.907703 0.408378
vt 0.903631 0.400170
vt 0.922076 0.264537
vt 0.971408 0.265899
vt 0.986755 0.312262
vt 0.926229 0.304080
vt 0.913280 0.228582
vt 0.918266 0.225734
vt 0.114732 0.423128
vt 0.064445 0.578309
vt 0.000174 0.283136
vt 0.040564 0.298768
vt 0.319940 0.418016
vt 0.396113 0.557102
vt 0.202056 0.687571
vt 0.222322 0.466507
vt 0.347587 0.321544
vt 0.366111 0.318568
vt 0.336578 0.320748
vt 0.275387 0.323622
vt 0.224033 0.323290
vt 0.151756 0.316975
vt 0.074540 0.306656
vt 0.554344 0.327995
vt 0.548015 0.327573
vt 0.545146 0.262005
vt 0.611369 0.258762
vt 0.623555 0.198020
vt 0.539996 0.200132
vt 0.539102 0.127511
vt 0.601902 0.111895
vt 0.557163 0.028489
vt 0.563887 0.042770
vt 0.707084 0.810562
vt 0.746215 0.775601
vt 0.761964 0.742892
vt 0.757731 0.690282
vt 0.742019 0.646765
vt 0.909085 0.227466
vt 0.893552 0.260887
vt 0.889245 0.296373
vt 0.891471 0.343804
vt 0.896446 0.391311
vt 0.873241 0.343529
vt 0.893999 0.386381
vt 0.875534 0.259356
vt 0.865717 0.292711
vt 0.907339 0.227572
vt 0.478978 0.500248
vt 0.528265 0.619105
vt 0.518992 0.626174
vt 0.427333 0.506742
vt 0.493456 0.385143
vt 0.467436 0.441166
vt 0.407328 0.444865
vt 0.449054 0.378537
vt 0.543349 0.337174
vt 0.540150 0.337817
vt 0.687756 0.904432
vt 0.693755 0.942356
vt 0.686300 0.943968
vt 0.641762 0.903506
vt 0.690627 0.845842
vt 0.685427 0.874357
vt 0.633696 0.874010
vt 0.652092 0.841051
vt 0.700204 0.820279
vt 0.696310 0.820112
vt 0.909231 0.072525
vt 0.880701 0.014305
vt 0.877005 0.000174
vt 0.965319 0.061063
vt 0.917226 0.161046
vt 0.920204 0.115446
vt 0.999826 0.094055
vt 0.980346 0.153041
vt 0.915826 0.215738
vt 0.922282 0.213474
vt 0.143439 0.210583
vt 0.041506 0.286926
vt 0.017114 0.274373
vt 0.118531 0.050387
vt 0.310188 0.238895
vt 0.235124 0.191192
vt 0.253820 0.015801
vt 0.381539 0.125864
vt 0.345152 0.311706
vt 0.355085 0.306165
vt 0.335440 0.314682
vt 0.275743 0.317377
vt 0.224450 0.316611
vt 0.152471 0.309705
vt 0.075773 0.297418
vt 0.549756 0.337145
vt 0.597328 0.390266
vt 0.538995 0.387783
vt 0.546156 0.336948
vt 0.612087 0.443209
vt 0.587965 0.525427
vt 0.528992 0.506924
vt 0.532725 0.440977
vt 0.544397 0.595392
vt 0.536687 0.608702
vt 0.703898 0.820939
vt 0.729227 0.845234
vt 0.738420 0.870021
vt 0.727714 0.909068
vt 0.704498 0.936807
vt 0.908588 0.217221
vt 0.884748 0.167456
vt 0.876734 0.127308
vt 0.876284 0.075401
vt 0.877242 0.024019
vt 0.854966 0.077050
vt 0.873276 0.028993
vt 0.862227 0.169385
vt 0.848318 0.133110
vt 0.905657 0.217580
vt 0.607004 0.385831
vt 0.516051 0.638160
vt 0.416602 0.511358
vt 0.555626 0.600874
vt 0.547110 0.614641
vt 0.623555 0.443487
vt 0.598790 0.530156
vt 0.396461 0.443628
vt 0.441104 0.371077
vt 0.738541 0.840711
vt 0.686069 0.953937
vt 0.633660 0.908147
vt 0.700118 0.950689
vt 0.749002 0.870628
vt 0.736738 0.913984
vt 0.623904 0.873803
vt 0.643863 0.833983
vt 0.711564 0.944726
vt 0.865869 0.253025
vt 0.976384 0.357907
vt 0.907479 0.419043
vt 0.893749 0.408068
vt 0.862522 0.347190
vt 0.853520 0.291659
vt 0.980002 0.259057
vt 0.999826 0.313607
vt 0.884436 0.392782
vt 0.275744 0.317440
vt 0.110392 0.038453
vt 0.041490 0.286965
vt 0.152460 0.309797
vt 0.224445 0.316684
vt 0.256896 0.000174
vt 0.396113 0.118386
vt 0.075762 0.297469
vt 0.536179 0.630230
vt 0.887019 0.398986
s 0
f 3/1/1 14/2/1 13/3/1 7/4/1
f 13/5/2 8/6/2 12/7/2 10/8/2
f 14/2/3 4/9/3 8/10/3 13/3/3
f 14/2/4 9/11/4 16/12/4 4/9/4
f 10/8/5 12/7/5 16/12/5 9/11/5
f 7/4/6 11/13/6 15/14/6 3/1/6
f 11/15/7 10/8/7 9/11/7 15/16/7
f 16/12/8 12/7/8 2/17/8 5/18/8
f 3/1/9 15/16/9 9/11/9 14/2/9
f 7/19/10 13/5/10 10/8/10 11/15/10
f 1/20/11 6/21/11 5/22/11 2/23/11
f 4/9/12 16/12/12 5/18/12 6/21/12
f 8/10/13 4/9/13 6/21/13 1/20/13
f 12/7/14 8/6/14 1/24/14 2/17/14
f 68/25/15 23/26/15 20/27/15 64/28/15
f 70/29/16 26/30/16 22/31/16 66/32/16
f 66/32/17 22/31/17 23/26/17 68/25/17
f 63/33/18 18/34/18 26/30/18 70/29/18
f 75/35/19 33/36/19 30/37/19 73/38/19
f 76/39/20 36/40/20 32/41/20 74/42/20
f 74/42/21 32/41/21 33/36/21 75/35/21
f 72/43/22 28/44/22 36/40/22 76/39/22
f 80/45/23 43/46/23 40/47/23 78/48/23
f 81/49/24 46/50/24 42/51/24 79/52/24
f 79/52/25 42/51/25 43/46/25 80/45/25
f 77/53/26 38/54/26 46/50/26 81/49/26
f 60/55/27 53/56/27 50/57/27 58/58/27
f 61/59/28 56/60/28 52/61/28 59/62/28
f 59/62/29 52/61/29 53/56/29 60/55/29
f 57/63/30 48/64/30 56/60/30 61/59/30
f 47/65/31 57/63/31 61/59/31 55/66/31
f 51/67/32 59/62/32 60/55/32 54/68/32
f 55/66/33 61/59/33 59/62/33 51/67/33
f 54/68/34 60/55/34 58/58/34 49/69/34
f 17/70/35 62/71/35 71/72/35 25/73/35
f 62/71/36 63/33/36 70/29/36 71/72/36
f 21/74/37 67/75/37 69/76/37 24/77/37
f 67/75/38 66/32/38 68/25/38 69/76/38
f 25/73/39 71/72/39 67/75/39 21/74/39
f 71/72/40 70/29/40 66/32/40 67/75/40
f 24/77/41 69/76/41 65/78/41 19/79/41
f 69/76/42 68/25/42 64/28/42 65/78/42
f 27/80/22 72/43/22 76/39/22 35/81/22
f 31/82/43 74/42/43 75/35/43 34/83/43
f 35/81/44 76/39/44 74/42/44 31/82/44
f 34/83/45 75/35/45 73/38/45 29/84/45
f 82/85/46 77/53/46 81/49/46 85/86/46
f 83/87/47 79/52/47 80/45/47 84/88/47
f 85/86/48 81/49/48 79/52/48 83/87/48
f 84/88/49 80/45/49 78/48/49 86/89/49
f 44/90/50 84/88/50 86/89/50 39/91/50
f 45/92/51 85/86/51 83/87/51 41/93/51
f 41/93/52 83/87/52 84/88/52 44/90/52
f 37/94/53 82/85/53 85/86/53 45/92/53
f 138/95/54 134/96/54 90/97/54 93/98/54
f 140/99/55 136/100/55 92/101/55 96/102/55
f 136/100/56 138/95/56 93/98/56 92/101/56
f 133/103/57 140/99/57 96/102/57 88/104/57
f 145/105/58 143/106/58 100/107/58 103/108/58
f 146/109/59 144/110/59 102/111/59 106/112/59
f 144/110/60 145/105/60 103/108/60 102/111/60
f 142/113/61 146/109/61 106/112/61 98/114/61
f 150/115/62 148/116/62 110/117/62 113/118/62
f 151/119/63 149/120/63 112/121/63 116/122/63
f 149/120/64 150/115/64 113/118/64 112/121/64
f 147/123/65 151/119/65 116/122/65 108/124/65
f 130/125/66 128/126/66 120/127/66 123/128/66
f 131/129/67 129/130/67 122/131/67 126/132/67
f 129/130/68 130/125/68 123/128/68 122/131/68
f 127/133/69 131/129/69 126/132/69 118/134/69
f 117/135/70 125/136/70 131/129/70 127/133/70
f 121/137/71 124/138/71 130/125/71 129/130/71
f 125/136/72 121/137/72 129/130/72 131/129/72
f 124/138/73 119/139/73 128/126/73 130/125/73
f 87/140/74 95/141/74 141/142/74 132/143/74
f 132/143/75 141/142/75 140/99/75 133/103/75
f 91/144/76 94/145/76 139/146/76 137/147/76
f 137/147/77 139/146/77 138/95/77 136/100/77
f 95/141/78 91/144/78 137/147/78 141/142/78
f 141/142/79 137/147/79 136/100/79 140/99/79
f 94/145/80 89/148/80 135/149/80 139/146/80
f 139/146/81 135/149/81 134/96/81 138/95/81
f 97/150/82 105/151/82 146/109/82 142/113/82
f 101/152/83 104/153/83 145/105/83 144/110/83
f 105/151/84 101/152/84 144/110/84 146/109/84
f 104/153/85 99/154/85 143/106/85 145/105/85
f 152/155/86 155/156/86 151/119/86 147/123/86
f 153/157/87 154/158/87 150/115/87 149/120/87
f 155/156/88 153/157/88 149/120/88 151/119/88
f 154/158/89 156/159/89 148/116/89 150/115/89
f 114/160/90 109/161/90 156/159/90 154/158/90
f 115/162/91 111/163/91 153/157/91 155/156/91
f 111/163/92 114/160/92 154/158/92 153/157/92
f 107/164/93 115/162/93 155/156/93 152/155/93
f 17/70/94 25/165/94 95/141/94 87/140/94
f 18/34/95 63/33/95 133/103/95 88/104/95
f 20/166/96 23/167/96 93/98/96 90/97/96
f 19/168/97 65/169/97 135/149/97 89/148/97
f 21/170/98 24/171/98 94/145/98 91/144/98
f 22/172/99 26/173/99 96/102/99 92/101/99
f 23/167/100 22/172/100 92/101/100 93/98/100
f 24/171/101 19/168/101 89/148/101 94/145/101
f 25/165/102 21/170/102 91/144/102 95/141/102
f 26/173/103 18/34/103 88/104/103 96/102/103
f 27/80/104 35/174/104 105/151/104 97/150/104
f 72/43/105 27/80/105 97/150/105 142/113/105
f 30/175/106 33/176/106 103/108/106 100/107/106
f 73/177/107 30/175/107 100/107/107 143/106/107
f 31/178/108 34/179/108 104/153/108 101/152/108
f 32/180/109 36/181/109 106/112/109 102/111/109
f 33/176/110 32/180/110 102/111/110 103/108/110
f 34/179/111 29/182/111 99/154/111 104/153/111
f 35/174/112 31/178/112 101/152/112 105/151/112
f 36/181/113 28/44/113 98/114/113 106/112/113
f 37/94/114 45/92/114 115/183/114 107/164/114
f 82/85/115 37/94/115 107/164/115 152/155/115
f 40/47/116 43/46/116 113/184/116 110/185/116
f 78/48/117 40/47/117 110/185/117 148/186/117
f 41/93/118 44/90/118 114/187/118 111/188/118
f 42/51/119 46/50/119 116/189/119 112/190/119
f 43/46/120 42/51/120 112/190/120 113/184/120
f 44/90/121 39/91/121 109/191/121 114/187/121
f 45/92/122 41/93/122 111/188/122 115/183/122
f 46/50/123 38/54/123 108/124/123 116/189/123
f 47/65/124 55/66/124 125/192/124 117/135/124
f 57/63/125 47/65/125 117/135/125 127/133/125
f 50/57/126 53/193/126 123/128/126 120/127/126
f 58/58/127 50/57/127 120/127/127 128/194/127
f 51/67/128 54/68/128 124/195/128 121/196/128
f 52/197/129 56/198/129 126/132/129 122/131/129
f 53/193/130 52/197/130 122/131/130 123/128/130
f 54/68/131 49/69/131 119/199/131 124/195/131
f 55/66/132 51/67/132 121/196/132 125/192/132
f 56/198/133 48/64/133 118/134/133 126/132/133
f 48/64/134 57/63/134 127/133/134 118/134/134
f 49/69/135 58/58/135 128/194/135 119/199/135
f 62/71/136 17/70/136 87/140/136 132/143/136
f 63/33/137 62/71/137 132/143/137 133/103/137
f 64/200/138 20/166/138 90/97/138 134/96/138
f 65/169/139 64/200/139 134/96/139 135/149/139
f 28/44/105 72/43/105 142/113/105 98/114/105
f 29/182/140 73/177/140 143/106/140 99/154/140
f 38/54/141 77/53/141 147/123/141 108/124/141
f 86/89/142 78/48/142 148/186/142 156/201/142
f 77/53/143 82/85/143 152/155/143 147/123/143
f 39/91/144 86/89/144 156/201/144 109/191/144
