# Blender 3.6.5
# www.blender.org
o 立方体
v -0.478433 0.398253 -0.218237
v 0.478433 0.398253 -0.218237
v -0.478433 0.398253 0.218237
v 0.478433 0.398253 0.218237
v -0.478433 0.236164 -0.218237
v -0.478433 0.236164 0.218237
v 0.478433 0.236164 -0.218237
v 0.478433 0.236164 0.218237
v -0.654756 0.408629 0.356453
v -0.706933 0.356453 0.408629
v -0.691650 0.393347 0.393347
v -0.654756 0.408629 -0.356453
v -0.706933 0.356453 -0.408629
v -0.691650 0.393347 -0.393347
v 0.654756 0.408629 0.356453
v 0.706933 0.356453 0.408629
v 0.691650 0.393347 0.393347
v 0.654756 0.408629 -0.356453
v 0.706933 0.356453 -0.408629
v 0.691650 0.393347 -0.393347
v -0.654756 0.408629 0.218237
v -0.706933 0.356453 0.218237
v -0.691650 0.393347 0.218237
v -0.706933 0.356453 -0.218237
v -0.654756 0.408629 -0.218237
v -0.691650 0.393347 -0.218237
v 0.654756 0.408629 -0.218237
v 0.706933 0.356453 -0.218237
v 0.691650 0.393347 -0.218237
v 0.706933 0.356453 0.218237
v 0.654756 0.408629 0.218237
v 0.691650 0.393347 0.218237
v -0.478433 0.408629 -0.356453
v -0.478433 0.356453 -0.408629
v -0.478433 0.393347 -0.393347
v 0.478433 0.356453 -0.408629
v 0.478433 0.408629 -0.356453
v 0.478433 0.393347 -0.393347
v 0.478433 0.408629 0.356453
v 0.478433 0.356453 0.408629
v 0.478433 0.393347 0.393347
v -0.478433 0.356453 0.408629
v -0.478433 0.408629 0.356453
v -0.478433 0.393347 0.393347
v -0.670359 0.225782 0.370876
v -0.677939 0.236164 0.379635
v -0.671352 0.233123 0.372703
v -0.670359 0.225782 -0.370876
v -0.677939 0.236164 -0.379635
v -0.671352 0.233123 -0.372703
v 0.670359 0.225782 0.370876
v 0.677939 0.236164 0.379635
v 0.671352 0.233123 0.372703
v 0.670359 0.225782 -0.370876
v 0.677939 0.236164 -0.379635
v 0.671352 0.233123 -0.372703
v -0.670360 0.225779 -0.258063
v -0.677939 0.236164 -0.247231
v -0.671352 0.233122 -0.254770
v -0.677939 0.236164 0.247231
v -0.670360 0.225779 0.258063
v -0.671352 0.233122 0.254770
v 0.670360 0.225779 0.258063
v 0.677939 0.236164 0.247231
v 0.671352 0.233122 0.254770
v 0.677939 0.236164 -0.247231
v 0.670360 0.225779 -0.258063
v 0.671352 0.233122 -0.254770
v 0.518927 0.225775 -0.370877
v 0.507427 0.236164 -0.379635
v 0.515162 0.233121 -0.372703
v -0.507427 0.236164 -0.379635
v -0.518927 0.225775 -0.370877
v -0.515162 0.233121 -0.372703
v -0.518927 0.225775 0.370877
v -0.507427 0.236164 0.379635
v -0.515162 0.233121 0.372703
v 0.507427 0.236164 0.379635
v 0.518927 0.225775 0.370877
v 0.515162 0.233121 0.372703
v 0.507427 0.236164 -0.247231
v 0.518928 0.225772 -0.258063
v 0.515162 0.233120 -0.254770
v -0.518928 0.225772 -0.258063
v -0.507427 0.236164 -0.247231
v -0.515162 0.233120 -0.254770
v 0.518928 0.225772 0.258063
v 0.507427 0.236164 0.247231
v 0.515162 0.233120 0.254770
v -0.507427 0.236164 0.247231
v -0.518928 0.225772 0.258063
v -0.515162 0.233120 0.254770
v -0.706933 0.246707 0.218237
v -0.696389 0.236164 0.218237
v -0.703845 0.239252 0.218237
v -0.696389 0.236164 0.398086
v -0.706933 0.246707 0.408629
v -0.703845 0.239252 0.405541
v -0.478433 0.246707 -0.408629
v -0.478433 0.236164 -0.398086
v -0.478433 0.239252 -0.405541
v -0.696389 0.236164 -0.398086
v -0.706933 0.246707 -0.408629
v -0.703845 0.239252 -0.405541
v 0.706933 0.246707 -0.218237
v 0.696389 0.236164 -0.218237
v 0.703845 0.239252 -0.218237
v 0.696389 0.236164 -0.398086
v 0.706933 0.246707 -0.408629
v 0.703845 0.239252 -0.405541
v 0.478433 0.246707 0.408629
v 0.478433 0.236164 0.398086
v 0.478433 0.239252 0.405541
v 0.696389 0.236164 0.398086
v 0.706933 0.246707 0.408629
v 0.703845 0.239252 0.405541
v -0.696389 0.236164 -0.218237
v -0.706933 0.246707 -0.218237
v -0.703845 0.239252 -0.218237
v 0.696389 0.236164 0.218237
v 0.706933 0.246707 0.218237
v 0.703845 0.239252 0.218237
v 0.478433 0.236164 -0.398086
v 0.478433 0.246707 -0.408629
v 0.478433 0.239252 -0.405541
v -0.478433 0.236164 0.398086
v -0.478433 0.246707 0.408629
v -0.478433 0.239252 0.405541
v -0.730253 0.015928 0.263912
v -0.718628 0.000000 0.280527
v -0.718628 0.000000 0.393498
v -0.730255 0.015924 0.406933
v -0.538272 0.015935 -0.406932
v -0.555913 0.000000 -0.393498
v -0.718628 0.000000 -0.393498
v -0.730255 0.015924 -0.406933
v 0.730253 0.015928 -0.263912
v 0.718628 0.000000 -0.280527
v 0.718628 0.000000 -0.393498
v 0.730255 0.015924 -0.406933
v 0.538272 0.015935 0.406932
v 0.555913 0.000000 0.393498
v 0.718628 0.000000 0.393498
v 0.730255 0.015924 0.406933
v -0.718628 0.000000 -0.280527
v -0.730253 0.015928 -0.263912
v 0.718628 0.000000 0.280527
v 0.730253 0.015928 0.263912
v -0.555913 0.000000 -0.280527
v -0.538272 0.015940 -0.263912
v -0.538272 0.015940 0.263912
v -0.555913 0.000000 0.280527
v 0.555913 0.000000 -0.393498
v 0.538272 0.015935 -0.406932
v -0.555913 0.000000 0.393498
v -0.538272 0.015935 0.406932
v 0.538272 0.015940 -0.263912
v 0.555913 0.000000 -0.280527
v 0.555913 0.000000 0.280527
v 0.538272 0.015940 0.263912
vn -0.0000 -1.0000 -0.0000
vn 0.0294 0.9989 -0.0375
vn 0.0294 0.9989 0.0375
vn 1.0000 -0.0000 -0.0000
vn -0.0587 0.9983 -0.0000
vn -0.0000 -0.0279 -0.9996
vn -0.0000 -0.0000 1.0000
vn -1.0000 -0.0000 -0.0000
vn -0.0000 -0.0000 -1.0000
vn 0.0587 0.9983 -0.0000
vn -0.0000 1.0000 -0.0000
vn -0.0294 0.9989 0.0375
vn -0.0000 0.9972 -0.0749
vn -0.0294 0.9989 -0.0375
vn -0.0000 0.9972 0.0749
vn -0.0000 0.1693 -0.9856
vn 0.9616 0.2745 -0.0000
vn -0.0000 -0.0279 0.9996
vn -0.0000 0.1693 0.9856
vn 0.9958 -0.0918 -0.0000
vn -0.9958 -0.0918 -0.0000
vn -0.9616 0.2745 -0.0000
vn -0.3827 0.9239 -0.0000
vn -0.9239 0.3827 -0.0000
vn -0.0000 0.9239 -0.3827
vn -0.0000 0.3827 -0.9239
vn 0.3827 0.9239 -0.0000
vn 0.9239 0.3827 -0.0000
vn -0.0000 0.9239 0.3827
vn -0.0000 0.3827 0.9239
vn -0.3827 -0.9239 -0.0000
vn -0.9239 -0.3827 -0.0000
vn -0.0000 -0.9239 -0.3827
vn -0.0000 -0.3827 -0.9239
vn 0.3827 -0.9239 -0.0000
vn 0.9239 -0.3827 -0.0000
vn -0.0000 -0.9239 0.3827
vn -0.0000 -0.3827 0.9239
vn -0.9910 -0.1340 -0.0000
vn -0.4192 -0.9079 -0.0000
vn -0.0000 -0.2413 -0.9704
vn -0.0000 -0.9157 -0.4018
vn 0.9910 -0.1340 -0.0000
vn 0.4192 -0.9079 -0.0000
vn -0.0000 -0.2413 0.9704
vn -0.0000 -0.9157 0.4018
vn -0.0000 -0.9273 0.3742
vn -0.0000 -0.4090 0.9125
vn -0.0000 -0.4090 -0.9125
vn -0.0000 -0.9273 -0.3742
vn 0.3661 -0.9306 -0.0000
vn 0.8899 -0.4561 -0.0000
vn -0.8899 -0.4561 -0.0000
vn -0.3661 -0.9306 -0.0000
vn -0.8077 -0.5896 -0.0000
vn -0.0000 -0.6447 -0.7644
vn 0.8077 -0.5896 -0.0000
vn -0.0000 -0.6447 0.7644
vn -0.0000 -0.7218 0.6921
vn -0.0000 -0.7218 -0.6921
vn 0.6704 -0.7420 -0.0000
vn -0.6704 -0.7420 -0.0000
vt 0.911146 0.316914
vt 0.533790 0.316914
vt 0.534066 0.245984
vt 0.910885 0.246015
vt 0.448327 0.246180
vt 0.448343 0.074089
vt 0.534042 0.074298
vt 0.910861 0.074329
vt 0.533781 0.003398
vt 0.911138 0.003399
vt 0.890756 0.546638
vt 0.960202 0.546741
vt 0.960214 0.601116
vt 0.890848 0.601131
vt 0.988880 0.309194
vt 0.989222 0.257541
vt 0.996584 0.246224
vt 0.995878 0.316202
vt 0.890814 0.320528
vt 0.960240 0.320551
vt 0.960222 0.374972
vt 0.890717 0.375066
vt 0.396283 0.049216
vt 0.369951 0.071717
vt 0.310562 0.053785
vt 0.324448 0.003952
vt 0.445181 0.374918
vt 0.514627 0.375021
vt 0.514666 0.546593
vt 0.445160 0.546687
vt 0.177970 0.819807
vt 0.174396 0.738957
vt 0.260867 0.737829
vt 0.256325 0.792751
vt 0.135649 0.054914
vt 0.121988 0.005347
vt 0.003672 0.549190
vt 0.052260 0.536629
vt 0.074786 0.609878
vt 0.048429 0.632275
vt 0.322112 0.677193
vt 0.308464 0.627754
vt 0.368887 0.608232
vt 0.391432 0.634907
vt 0.390282 0.535724
vt 0.439768 0.548855
vt 0.119991 0.677738
vt 0.134052 0.628018
vt 0.392635 0.144856
vt 0.441249 0.132311
vt 0.052511 0.047360
vt 0.074925 0.074143
vt 0.053113 0.146254
vt 0.003749 0.133078
vt 0.988902 0.011136
vt 0.922475 0.010749
vt 0.995903 0.004127
vt 0.445169 0.320543
vt 0.514535 0.320528
vt 0.514569 0.601131
vt 0.445143 0.601108
vt 0.438470 0.916428
vt 0.377434 0.871981
vt 0.450122 0.826559
vt 0.510611 0.851249
vt 0.151215 0.683567
vt 0.166155 0.738957
vt 0.079684 0.737830
vt 0.054840 0.695652
vt 0.318955 0.769789
vt 0.267966 0.738994
vt 0.289347 0.703593
vt 0.340336 0.734388
vt 0.348245 0.819807
vt 0.344671 0.738957
vt 0.431142 0.737830
vt 0.426600 0.792751
vt 0.189336 0.683567
vt 0.285711 0.695652
vt 0.522447 0.010743
vt 0.456047 0.011118
vt 0.449049 0.004111
vt 0.547710 0.729314
vt 0.608746 0.684868
vt 0.680887 0.750046
vt 0.620398 0.774736
vt 0.518521 0.781488
vt 0.596876 0.808544
vt 0.455691 0.257503
vt 0.456025 0.309176
vt 0.449024 0.316185
vt 0.922480 0.309569
vt 0.133392 0.871981
vt 0.072357 0.916428
vt 0.000216 0.851249
vt 0.060705 0.826559
vt 0.162581 0.819807
vt 0.084226 0.792751
vt 0.359612 0.683567
vt 0.455987 0.695652
vt 0.522602 0.062886
vt 0.268194 0.916428
vt 0.207159 0.871981
vt 0.279846 0.826559
vt 0.340336 0.851249
vt 0.514947 0.862338
vt 0.601418 0.863466
vt 0.608518 0.862301
vt 0.659506 0.831506
vt 0.680887 0.866907
vt 0.629898 0.897702
vt 0.522452 0.309564
vt 0.522617 0.257399
vt 0.455705 0.062771
vt 0.459622 0.703593
vt 0.510611 0.734388
vt 0.489231 0.769789
vt 0.438242 0.738994
vt 0.922326 0.257427
vt 0.000216 0.734388
vt 0.051204 0.703593
vt 0.072585 0.738994
vt 0.021596 0.769789
vt 0.922310 0.062913
vt 0.989236 0.062809
vt 0.996600 0.074133
vt 0.304632 0.596565
vt 0.349740 0.589575
vt 0.359803 0.599464
vt 0.306125 0.611708
vt 0.360902 0.148604
vt 0.351260 0.090615
vt 0.361112 0.080612
vt 0.376358 0.147122
vt 0.139471 0.086285
vt 0.093935 0.092947
vt 0.083947 0.082974
vt 0.137981 0.071032
vt 0.084016 0.532842
vt 0.093539 0.591047
vt 0.083651 0.601016
vt 0.068539 0.534348
vt 0.137627 0.597314
vt 0.136295 0.612244
vt 0.307129 0.084554
vt 0.308387 0.069594
vt 0.358758 0.531937
vt 0.374140 0.533426
vt 0.084487 0.150052
vt 0.069197 0.148560
vt 0.999005 0.001021
vt 0.999785 0.074116
vt 0.118923 0.681463
vt 0.045773 0.634810
vt 0.998978 0.319307
vt 0.911160 0.320097
vt 0.443302 0.549795
vt 0.394083 0.637458
vt 0.445922 0.319291
vt 0.445143 0.246196
vt 0.325503 0.000216
vt 0.398936 0.046668
vt 0.445949 0.001005
vt 0.533767 0.000216
vt 0.000215 0.132134
vt 0.049873 0.044798
vt 0.999768 0.246241
vt 0.323113 0.680823
vt 0.445159 0.074072
vt 0.120987 0.001717
vt 0.533775 0.320097
vt 0.444712 0.131450
vt 0.911152 0.000216
vt 0.000216 0.550052
vt 0.529887 0.917728
vt 0.526891 0.919401
vt 0.511042 0.862166
vt 0.986414 0.059630
vt 0.986073 0.014090
vt 0.436860 0.919401
vt 0.374159 0.874223
vt 0.925732 0.306628
vt 0.986053 0.306241
vt 0.154211 0.681894
vt 0.170060 0.739129
vt 0.458514 0.260682
vt 0.458855 0.306223
vt 0.266584 0.919401
vt 0.203883 0.874223
vt 0.519195 0.013684
vt 0.458875 0.014071
vt 0.340767 0.739129
vt 0.356616 0.681894
vt 0.986400 0.260718
vt 0.170491 0.739129
vt 0.186340 0.681894
vt 0.458527 0.059594
vt 0.925544 0.260565
vt 0.343996 0.821179
vt 0.514272 0.780116
vt 0.925530 0.059774
vt 0.136668 0.874223
vt 0.073967 0.919401
vt 0.519199 0.306621
vt 0.544434 0.727072
vt 0.607136 0.681894
vt 0.925728 0.013692
vt 0.519397 0.260538
vt 0.166830 0.821179
vt 0.173721 0.821179
vt 0.519383 0.059747
vt 0.626262 0.905644
vt 0.455528 0.821143
vt 0.509524 0.842788
vt 0.285253 0.821143
vt 0.339249 0.842788
vt 0.435821 0.790004
vt 0.606097 0.811291
vt 0.001302 0.842788
vt 0.055298 0.821144
vt 0.679800 0.758507
vt 0.625804 0.780152
vt 0.075005 0.790004
vt 0.265546 0.790004
s 0
f 100/1/1 123/2/1 7/3/1 5/4/1
f 7/3/1 106/5/1 120/6/1 8/7/1
f 6/8/1 8/7/1 112/9/1 126/10/1
f 3/11/2 21/12/2 9/13/2 43/14/2
f 49/15/1 58/16/1 117/17/1 102/18/1
f 33/19/3 12/20/3 25/21/3 1/22/3
f 109/23/4 19/24/4 28/25/4 105/26/4
f 27/27/5 2/28/5 4/29/5 31/30/5
f 87/31/6 63/32/6 148/33/6 160/34/6
f 105/26/4 28/25/4 30/35/4 121/36/4
f 127/37/7 42/38/7 10/39/7 97/40/7
f 118/41/8 24/42/8 13/43/8 103/44/8
f 103/44/9 13/43/9 34/45/9 99/46/9
f 1/22/10 25/21/10 21/12/10 3/11/10
f 93/47/8 22/48/8 24/42/8 118/41/8
f 5/4/1 7/3/1 8/7/1 6/8/1
f 97/40/8 10/39/8 22/48/8 93/47/8
f 99/46/9 34/45/9 36/49/9 124/50/9
f 124/50/9 36/49/9 19/24/9 109/23/9
f 2/28/11 1/22/11 3/11/11 4/29/11
f 115/51/7 16/52/7 40/53/7 111/54/7
f 121/36/4 30/35/4 16/52/4 115/51/4
f 46/55/1 76/56/1 126/10/1 96/57/1
f 111/54/7 40/53/7 42/38/7 127/37/7
f 18/58/12 37/59/12 2/28/12 27/27/12
f 4/29/13 3/11/13 43/14/13 39/60/13
f 31/30/14 4/29/14 39/60/14 15/61/14
f 37/59/15 33/19/15 1/22/15 2/28/15
f 48/62/16 73/63/16 133/64/16 136/65/16
f 54/66/17 67/67/17 137/68/17 140/69/17
f 159/70/1 147/71/1 143/72/1 142/73/1
f 84/74/18 57/75/18 146/76/18 150/77/18
f 63/32/17 51/78/17 144/79/17 148/33/17
f 78/80/1 52/81/1 114/82/1 112/9/1
f 75/83/19 45/84/19 132/85/19 156/86/19
f 91/87/20 75/83/20 156/86/20 151/88/20
f 66/89/1 55/90/1 108/91/1 106/5/1
f 72/92/1 49/15/1 102/18/1 100/1/1
f 69/93/16 54/94/16 140/95/16 154/96/16
f 82/97/21 69/93/21 154/96/21 157/98/21
f 57/75/22 48/99/22 136/100/22 146/76/22
f 88/101/1 78/80/1 112/9/1 8/7/1
f 51/102/19 79/103/19 141/104/19 144/105/19
f 79/103/21 87/31/21 160/34/21 141/104/21
f 67/67/18 82/97/18 157/98/18 137/68/18
f 73/63/20 84/74/20 150/77/20 133/64/20
f 61/106/6 91/87/6 151/88/6 129/107/6
f 130/108/1 152/109/1 155/110/1 131/111/1
f 55/90/1 70/112/1 123/2/1 108/91/1
f 81/113/1 66/89/1 106/5/1 7/3/1
f 52/81/1 64/114/1 120/6/1 114/82/1
f 64/114/1 88/101/1 8/7/1 120/6/1
f 135/115/1 134/116/1 149/117/1 145/118/1
f 85/119/1 72/92/1 100/1/1 5/4/1
f 153/120/1 139/121/1 138/122/1 158/123/1
f 70/112/1 81/113/1 7/3/1 123/2/1
f 58/16/1 85/119/1 5/4/1 117/17/1
f 76/56/1 90/124/1 6/8/1 126/10/1
f 90/124/1 60/125/1 94/126/1 6/8/1
f 25/127/23 12/128/23 14/129/23 26/130/23
f 26/130/24 14/129/24 13/43/24 24/42/24
f 37/131/25 18/132/25 20/133/25 38/134/25
f 38/134/26 20/133/26 19/24/26 36/49/26
f 31/135/27 15/136/27 17/137/27 32/138/27
f 32/138/28 17/137/28 16/52/28 30/35/28
f 43/139/29 9/140/29 11/141/29 44/142/29
f 44/142/30 11/141/30 10/39/30 42/38/30
f 9/140/23 21/143/23 23/144/23 11/141/23
f 11/141/24 23/144/24 22/48/24 10/39/24
f 21/143/23 25/127/23 26/130/23 23/144/23
f 23/144/24 26/130/24 24/42/24 22/48/24
f 18/132/27 27/145/27 29/146/27 20/133/27
f 20/133/28 29/146/28 28/25/28 19/24/28
f 27/145/27 31/135/27 32/138/27 29/146/27
f 29/146/28 32/138/28 30/35/28 28/25/28
f 12/128/25 33/147/25 35/148/25 14/129/25
f 14/129/26 35/148/26 34/45/26 13/43/26
f 33/147/25 37/131/25 38/134/25 35/148/25
f 35/148/26 38/134/26 36/49/26 34/45/26
f 15/136/29 39/149/29 41/150/29 17/137/29
f 17/137/30 41/150/30 40/53/30 16/52/30
f 39/149/29 43/139/29 44/142/29 41/150/29
f 41/150/30 44/142/30 42/38/30 40/53/30
f 117/17/1 5/4/1 6/8/1 94/126/1
f 94/126/31 96/57/31 98/151/31 95/152/31
f 95/153/32 98/154/32 97/40/32 93/47/32
f 100/1/33 102/18/33 104/155/33 101/156/33
f 101/157/34 104/158/34 103/44/34 99/46/34
f 106/5/35 108/91/35 110/159/35 107/160/35
f 107/161/36 110/162/36 109/23/36 105/26/36
f 112/9/37 114/82/37 116/163/37 113/164/37
f 113/165/38 116/166/38 115/51/38 111/54/38
f 102/18/31 117/17/31 119/167/31 104/155/31
f 104/158/32 119/168/32 118/41/32 103/44/32
f 117/17/31 94/126/31 95/152/31 119/167/31
f 119/168/32 95/153/32 93/47/32 118/41/32
f 114/82/35 120/6/35 122/169/35 116/163/35
f 116/166/36 122/170/36 121/36/36 115/51/36
f 120/6/35 106/5/35 107/160/35 122/169/35
f 122/170/36 107/161/36 105/26/36 121/36/36
f 108/91/33 123/2/33 125/171/33 110/159/33
f 110/162/34 125/172/34 124/50/34 109/23/34
f 123/2/33 100/1/33 101/156/33 125/171/33
f 125/172/34 101/157/34 99/46/34 124/50/34
f 96/57/37 126/10/37 128/173/37 98/151/37
f 98/154/38 128/174/38 127/37/38 97/40/38
f 126/10/37 112/9/37 113/164/37 128/173/37
f 128/174/38 113/165/38 111/54/38 127/37/38
f 61/106/39 45/175/39 47/176/39 62/177/39
f 62/178/40 47/179/40 46/55/40 60/125/40
f 73/63/41 48/62/41 50/180/41 74/181/41
f 74/182/42 50/183/42 49/15/42 72/92/42
f 67/67/43 54/66/43 56/184/43 68/185/43
f 68/186/44 56/187/44 55/90/44 66/89/44
f 79/103/45 51/102/45 53/188/45 80/189/45
f 80/190/46 53/191/46 52/81/46 78/80/46
f 48/99/39 57/75/39 59/192/39 50/193/39
f 50/183/40 59/194/40 58/16/40 49/15/40
f 51/78/43 63/32/43 65/195/43 53/196/43
f 53/191/44 65/197/44 64/114/44 52/81/44
f 85/119/47 58/16/47 59/194/47 86/198/47
f 86/199/48 59/192/48 57/75/48 84/74/48
f 91/87/49 61/106/49 62/177/49 92/200/49
f 92/201/50 62/178/50 60/125/50 90/124/50
f 54/94/41 69/93/41 71/202/41 56/203/41
f 56/187/42 71/204/42 70/112/42 55/90/42
f 45/84/45 75/83/45 77/205/45 47/206/45
f 47/179/46 77/207/46 76/56/46 46/55/46
f 66/89/47 81/113/47 83/208/47 68/186/47
f 68/185/48 83/209/48 82/97/48 67/67/48
f 63/32/49 87/31/49 89/210/49 65/195/49
f 65/197/50 89/211/50 88/101/50 64/114/50
f 72/92/51 85/119/51 86/198/51 74/182/51
f 74/181/52 86/199/52 84/74/52 73/63/52
f 69/93/53 82/97/53 83/209/53 71/202/53
f 71/204/54 83/208/54 81/113/54 70/112/54
f 90/124/51 76/56/51 77/207/51 92/201/51
f 92/200/52 77/205/52 75/83/52 91/87/52
f 87/31/53 79/103/53 80/189/53 89/210/53
f 89/211/54 80/190/54 78/80/54 88/101/54
f 60/125/1 46/55/1 96/57/1 94/126/1
f 130/108/55 131/111/55 132/212/55 129/107/55
f 134/213/56 135/214/56 136/65/56 133/64/56
f 138/122/57 139/121/57 140/69/57 137/68/57
f 142/215/58 143/216/58 144/105/58 141/104/58
f 135/115/55 145/118/55 146/76/55 136/100/55
f 143/72/57 147/71/57 148/33/57 144/79/57
f 150/77/59 146/76/59 145/118/59 149/217/59
f 152/218/60 130/108/60 129/107/60 151/88/60
f 139/219/56 153/220/56 154/96/56 140/95/56
f 131/221/58 155/222/58 156/86/58 132/85/58
f 137/68/59 157/98/59 158/223/59 138/122/59
f 147/71/60 159/224/60 160/34/60 148/33/60
f 133/64/61 150/77/61 149/217/61 134/213/61
f 153/220/62 158/223/62 157/98/62 154/96/62
f 151/88/61 156/86/61 155/222/61 152/218/61
f 159/224/62 142/215/62 141/104/62 160/34/62
f 45/175/22 61/106/22 129/107/22 132/212/22
